<?xml version="1.0" encoding="UTF-8" standalone="no"?>
<!DOCTYPE svg PUBLIC "-//W3C//DTD SVG 1.1//EN" "http://www.w3.org/Graphics/SVG/1.1/DTD/svg11.dtd">
<svg width="100%" height="100%" viewBox="0 0 917 1004" version="1.1" xmlns="http://www.w3.org/2000/svg" xmlns:xlink="http://www.w3.org/1999/xlink" xml:space="preserve" xmlns:serif="http://www.serif.com/" style="fill-rule:evenodd;clip-rule:evenodd;stroke-linejoin:round;stroke-miterlimit:2;">
    <g transform="matrix(1,0,0,1,-177.329874,-1589.945208)">
        <g transform="matrix(1.998052,0,0,1.876785,20.239386,1513.478637)">
            <path d="M78.959,269.5C78.667,168.009 78.389,167.918 78.93,166.735C79.708,165.039 218.327,89.154 230.496,82.492C255.567,68.767 305.174,40.872 306.537,40.744C309.688,40.449 439.841,113.313 451.357,119.76C495.45,144.445 535.643,165.16 536.244,167.562C536.557,168.813 537.573,449.548 537.479,451.496C537.35,454.162 480.612,482.847 420.239,516.003C411.427,520.842 313.294,574.736 309.469,575.339C307.111,575.711 153.709,492.326 140.225,484.997C82.479,453.608 79.865,454.86 79.772,449.501C79.521,435.103 79.823,435.238 78.959,269.5Z"/>
            <path d="M303.893,459.497C303.474,467.822 304.972,470.978 301.658,469.165C237.922,434.296 237.937,434.672 232.421,431.627C230.671,430.661 230.963,430.143 230.378,350.491C230.356,347.376 231.972,348.738 234.647,350.227C237.015,351.546 299.47,385.111 302.246,386.868C303.961,387.953 303.637,388.575 303.893,459.497Z" style="fill:rgb(210,210,210);"/>
            <path d="M230.082,263.505C230.26,260.885 229.784,258.247 229.962,255.626C230.108,253.472 231.687,255.376 296.645,290.235C305.979,295.244 303.145,298.107 303.207,313.505C303.452,373.915 304.093,376.379 301.501,375.497C300.196,375.053 238.15,341.224 232.651,338.225C230.207,336.893 230.213,336.071 230.082,263.505Z" style="fill:rgb(210,210,210);"/>
            <path d="M312.935,328.496C312.807,294.894 312.835,294.891 313.029,294.312C313.376,293.279 323.48,287.864 324.421,287.36C381.499,256.772 385.647,251.03 385.654,257.498C385.746,335.585 385.996,335.747 385.437,336.455C383.946,338.343 320.943,372.032 315.294,375.052C312.006,376.811 313.017,373.22 312.935,328.496Z" style="fill:rgb(210,210,210);"/>
            <path d="M313.205,400.503C313.218,388.958 312.234,388.637 313.847,386.799C314.085,386.529 335.846,374.671 336.426,374.363C369.597,356.744 384.31,347.63 385.481,348.526C387.262,349.888 386.398,421.181 386.322,427.498C386.264,432.248 355.045,446.088 316.268,468.048C311.561,470.713 313.453,465.392 313.205,400.503Z" style="fill:rgb(210,210,210);"/>
            <path d="M313.866,544.498C313.646,481.349 313.277,480.568 315.428,479.379C329.527,471.588 358.839,455.763 362.62,453.721C384.854,441.718 384.85,441.403 385.464,441.693C386.838,442.342 387.642,522.558 385.627,523.67C380.047,526.75 328.498,555.204 315.493,561.471C314.264,562.063 313.863,561.143 313.866,544.498Z" style="fill:rgb(210,210,210);"/>
            <path d="M231.069,499.505C230.68,445.15 229.274,440.791 233.263,442.935C238.867,445.946 301.488,479.596 303.143,480.892C304.563,482.003 304.757,561.332 303.499,561.495C301.35,561.775 239.137,527.389 233.594,524.325C229.929,522.299 231.111,512.227 231.069,499.505Z" style="fill:rgb(210,210,210);"/>
            <path d="M221.083,403.504C221.163,423.919 221.01,425.344 219.463,424.647C206.597,418.846 166.183,395.916 161.605,393.318C157.54,391.012 159.916,356.52 159.112,313.505C159.007,307.882 163.133,311.368 184.68,323.155C219.837,342.388 220.262,342.084 220.666,343.447C221.24,345.38 220.59,357.122 221.083,403.504Z" style="fill:rgb(210,210,210);"/>
            <path d="M159.051,285.5C158.601,219.63 156.51,214.227 161.318,216.882C218.467,248.444 220.315,247.571 220.413,251.502C220.569,257.823 222.317,328.364 220.563,330.546C218.907,332.607 165.379,301.871 160.69,299.179C157.614,297.412 159.246,296.526 159.051,285.5Z" style="fill:rgb(123,123,123);"/>
            <path d="M456.918,293.5C456.488,300.478 453.905,299.347 414.338,321.22C396.92,330.848 395.563,331.155 395.458,329.509C394.88,320.38 395.154,261.421 395.182,255.5C395.225,246.257 398.16,247.488 406.246,243.045C410.168,240.891 454.661,216.448 455.498,216.524C457.107,216.672 456.567,218.686 456.918,293.5Z" style="fill:rgb(123,123,123);"/>
            <path d="M396.142,479.501C396.043,446.311 395.95,446.377 395.959,443.497C395.987,435.039 397.128,434.952 404.663,430.794C453.908,403.615 457.388,400.822 457.373,405.499C457.245,445.924 458.528,483.839 457.052,485.049C456.089,485.838 399.256,516.378 397.472,517.223C395.943,517.946 396.265,515.327 396.142,479.501Z" style="fill:rgb(123,123,123);"/>
            <path d="M395.907,413.5C395.842,391.833 395.778,370.166 395.713,348.5C395.674,343.205 395.125,342.5 399.763,339.965C453.349,310.688 457.067,307.428 457.036,312.509C456.742,360.967 458.27,390.855 456.168,392.039C451.52,394.656 410.156,417.948 397.558,423.833C395.361,424.86 396.36,422.862 395.907,413.5Z" style="fill:rgb(210,210,210);"/>
            <path d="M88.923,342.5C88.519,272.166 89.005,271.999 89.534,271.891C90.829,271.627 142.704,300.333 147.291,302.872C149.478,304.082 149.555,315.395 149.562,316.5C150.03,385.479 149.741,386.696 148.551,386.206C146.963,385.552 97.194,358.487 92.736,356.062C85.851,352.318 89.225,350.308 88.923,342.5Z" style="fill:rgb(123,123,123);"/>
            <path d="M149.118,216.502C149.428,291.037 149.369,293.157 147.591,292.244C142.835,289.802 90.064,262.699 88.997,260.105C86.634,254.363 88.304,254.079 88.142,182.497C88.135,179.213 87.524,176.971 90.481,178.54C94.117,180.471 93.955,180.569 135.694,203.132C144.946,208.134 148.804,206.004 149.118,216.502Z" style="fill:rgb(123,123,123);"/>
            <path d="M527.953,443.5C527.394,449.576 524.799,448.148 474.611,475.715C467.727,479.496 467.228,478.164 467.214,477.554C467.061,471.096 465.342,398.535 467.774,396.806C468.899,396.006 525.744,365.008 526.518,364.937C528.021,364.799 527.634,366.022 527.953,443.5Z" style="fill:rgb(123,123,123);"/>
            <path d="M318.574,279.638C309.301,284.47 309.369,286.025 306.484,284.538C301.181,281.807 249.113,254.984 240.858,249.153C238.613,247.568 307.477,212.327 307.488,212.325C308.316,212.198 375.572,246.843 375.384,248.461C375.334,248.898 375.247,248.791 318.574,279.638Z" style="fill:rgb(210,210,210);"/>
            <path d="M526.959,221.5C527.175,259.064 527.519,259.737 525.224,261.009C520.633,263.554 468.646,292.379 467.495,292.2C467.168,292.15 466.375,291.929 466.179,223.5C466.175,222.389 466.142,210.784 467.622,209.687C468.176,209.277 525.222,178.322 525.493,178.309C527.216,178.229 526.852,179.297 526.959,221.5Z" style="fill:rgb(123,123,123);"/>
            <path d="M159.875,481.497C159.78,411.544 159.411,411.576 159.462,405.496C159.499,401.129 162.412,404.679 208.462,429.572C217.976,434.716 221.166,433.592 221.19,444.5C221.343,514.71 222.587,518.455 219.396,516.759C162.434,486.486 160.769,486.959 159.875,481.497Z" style="fill:rgb(123,123,123);"/>
            <path d="M466.896,374.5C466.818,355.833 466.74,337.167 466.661,318.5C466.591,308.342 462.783,305.842 471.715,300.903C523.778,272.114 527.281,268.555 527.271,273.511C527.114,351.249 528.503,352.726 526.233,354.055C521.697,356.711 492.541,373.781 468.467,385.363C467.031,386.053 467.599,384.657 466.896,374.5Z" style="fill:rgb(123,123,123);"/>
            <path d="M89.027,369.494C89.622,366.14 89.414,366.026 89.668,365.879C91.224,364.986 143.601,394.363 148.227,396.958C150.802,398.402 150.013,410.644 150.038,422.507C150.155,477.182 150.781,479.698 148.459,478.649C146.539,477.782 96.236,450.558 91.701,448.104C89.207,446.754 89.239,445.948 89.027,369.494Z" style="fill:rgb(123,123,123);"/>
            <path d="M318.882,205.801C324.123,202.964 382.968,171.111 384.556,170.659C387.109,169.931 426.808,192.114 449.382,203.72C453.756,205.969 452.537,206.975 452.229,207.157C422.323,224.867 393.745,239.036 388.556,241.609C384.577,243.581 349.625,222.391 319.582,207.398C319.457,207.336 318.964,207.09 318.882,205.801Z" style="fill:rgb(123,123,123);"/>
            <path d="M342.422,182.349C307.236,201.339 306.736,200.553 305.718,200.049C300.417,197.429 239.661,167.395 240.796,164.695C240.844,164.581 240.804,164.64 287.55,139.597C304.959,130.27 304.924,127.731 309.286,129.912C314.518,132.53 362.055,156.306 374.006,163.965C376.468,165.542 373.144,165.669 342.422,182.349Z" style="fill:rgb(123,123,123);"/>
            <path d="M221.444,238.606C180.397,215.911 161.728,207.419 163.895,205.906C165.199,204.995 220.342,175.646 225.258,173.03C232.546,169.151 232.72,173.151 295.544,205.446C298.565,206.999 294.877,207.457 264.771,223.988C262.102,225.453 245.176,234.747 231.287,242.088C228.691,243.46 228.658,242.089 221.444,238.606Z" style="fill:rgb(123,123,123);"/>
            <path d="M218.646,154.209C208.876,149.111 209.082,149.094 199.274,143.934C170.43,128.758 169.487,129.168 169.62,127.527C169.745,125.995 228.437,94.494 233.605,91.72C235.818,90.533 245.997,96.629 282.737,116.041C291.644,120.747 301.688,120.99 292.685,125.841C274.024,135.857 255.363,145.872 236.703,155.888C225.517,161.934 225.199,157.619 218.646,154.209Z" style="fill:rgb(123,123,123);"/>
            <path d="M325.427,127.645C319.299,124.448 319.252,124.592 318.809,124.192C316.476,122.084 319.475,122.436 327.329,118.188C375.727,92.011 377.802,90.275 380.416,91.668C385.506,94.379 442.187,124.574 443.554,126.46C445.131,128.637 385.564,158.776 385.501,158.776C380.088,158.767 380.697,156.763 325.427,127.645Z" style="fill:rgb(123,123,123);"/>
            <path d="M218.024,166.046C185.161,183.692 185.158,183.628 182.321,185.195C154.099,200.784 154.018,201.666 151.458,200.632C146.975,198.819 147.389,198.093 98.278,171.894C90.693,167.848 98.05,166.634 105.518,162.53C156.719,134.397 157.181,132.672 161.332,134.835C165.884,137.208 217.484,164.102 218.077,164.81C218.141,164.886 218.077,164.81 218.024,166.046Z" style="fill:rgb(123,123,123);"/>
            <path d="M422.427,178.645C397.691,165.531 397.013,165.983 397.033,164.471C397.055,162.849 448.221,136.282 452.73,133.941C455.124,132.698 455.749,132.929 509.784,163.001C517.147,167.099 524.955,167.664 517.554,171.605C502.81,179.455 470.418,197.36 466.424,199.363C462.723,201.218 456.738,196.497 422.427,178.645Z" style="fill:rgb(123,123,123);"/>
            <path d="M293.373,110.736C289.778,108.805 275.577,101.177 248.248,86.947C243.939,84.704 251.761,81.716 263.762,74.966C305.834,51.302 306.639,50.973 310.253,52.941C365.287,82.912 370.886,83.678 366.374,86.309C359.887,90.093 313.823,114.57 309.241,117.005C306.231,118.604 293.392,110.746 293.373,110.736Z" style="fill:rgb(123,123,123);"/>
        </g>
    </g>
</svg>
